<?xml version="1.0" encoding="utf-8"?>
<!-- Generator: Adobe Illustrator 16.0.0, SVG Export Plug-In . SVG Version: 6.00 Build 0)  -->
<!DOCTYPE svg PUBLIC "-//W3C//DTD SVG 1.1//EN" "http://www.w3.org/Graphics/SVG/1.1/DTD/svg11.dtd">
<svg version="1.1" id="Layer_1" xmlns="http://www.w3.org/2000/svg" xmlns:xlink="http://www.w3.org/1999/xlink" x="0px" y="0px"
	 width="1199.371px" height="271.658px" viewBox="0 0 1199.371 271.658" enable-background="new 0 0 1199.371 271.658"
	 xml:space="preserve">
<rect y="1" fill="#FFFFFF" width="1199.371" height="270.658"/>
<g>
	<path fill="#0488D1" d="M145.509,54.329H63.186V28.848c0-7.451-3.639-11.519-9.412-11.519h-0.516
		c-5.858,0-10.073,4.428-10.073,11.519v24.309c-8,1.261-14,7.763-14,15.589v168.819c0,8.728,7.36,16.764,16.087,16.764h100.236
		c8.728,0,14.676-8.036,14.676-16.764v-21.17v-5.274c0,0.035-1.178,0.065-2.064,0.065c-0.886,0-1.474-0.03-2.349-0.065
		c-34.051-1.393-61.185-29.513-61.185-63.901c0-34.386,27.352-62.509,61.402-63.898c0.875-0.037,1.21-0.067,2.097-0.067
		s2.099,0.03,2.099,0.067v-5.275v-9.3C160.186,60.019,154.237,54.329,145.509,54.329z M90.58,147.22
		c0,37.297,29.605,67.781,66.605,69.176v21.17c0,5.817-5.857,10.764-11.676,10.764H45.273c-5.82,0-10.087-4.946-10.087-10.764
		V68.746c0-4.902,3.143-8.431,7.68-9.611c0.849-0.218,1.489,0.194,2.408,0.194h3.913V52.92V28.848c0-4.11,1.175-6.519,4.073-6.519
		h0.516c3.043,0,4.412,2.845,4.412,6.519V52.92v6.409h5.552h81.771c5.819,0,11.676,3.597,11.676,9.417v9.3
		C120.186,79.438,90.58,109.922,90.58,147.22z"/>
	<g>
		<path fill="#0488D1" d="M158.697,203.806c-31.202,0-56.586-25.382-56.586-56.586c0-31.202,25.384-56.586,56.586-56.586
			s56.586,25.384,56.586,56.586C215.283,178.424,189.899,203.806,158.697,203.806z M158.697,95.908
			c-28.291,0-51.309,23.02-51.309,51.312c0,28.293,23.018,51.312,51.309,51.312c28.293,0,51.312-23.019,51.312-51.312
			C210.009,118.928,186.99,95.908,158.697,95.908z"/>
	</g>
	<path fill="#0488D1" d="M158.697,109.457c-20.857,0-37.763,16.906-37.763,37.763c0,20.858,16.906,37.766,37.763,37.766
		c20.859,0,37.765-16.907,37.765-37.766C196.462,126.363,179.557,109.457,158.697,109.457z M185.075,143.329
		c0-10-8.89-21.404-19.89-21.404v-5.277c16,0,25.165,10.681,25.165,26.681H185.075z"/>
</g>
<g>
	<path fill="#333333" d="M247.97,228.921V90.447h87.521v21.38h-62.343v35.368h55.35v21.381h-55.35v60.345H247.97z"/>
	<path fill="#333333" d="M383.846,93.844c0,4.53-1.467,8.127-4.396,10.79c-2.932,2.667-6.394,3.997-10.39,3.997
		c-4.131,0-7.662-1.33-10.591-3.997c-2.932-2.663-4.396-6.26-4.396-10.79c0-4.662,1.464-8.324,4.396-10.99
		c2.929-2.663,6.46-3.996,10.591-3.996c3.996,0,7.458,1.333,10.39,3.996C382.378,85.52,383.846,89.182,383.846,93.844z
		 M381.248,228.921H357.07V124.416h24.178V228.921z"/>
	<path fill="#333333" d="M406.223,177.168c0-9.191,1.364-17.25,4.096-24.178c2.729-6.926,6.36-12.689,10.89-17.285
		c4.527-4.596,9.723-8.058,15.586-10.391c5.86-2.329,11.855-3.497,17.983-3.497c14.387,0,25.608,4.464,33.669,13.388
		c8.059,8.926,12.089,22.248,12.089,39.964c0,1.333-0.035,2.832-0.1,4.496c-0.069,1.667-0.168,3.165-0.3,4.495H431.2
		c0.665,8.393,3.628,14.887,8.892,19.482c5.261,4.596,12.888,6.894,22.879,6.894c5.86,0,11.221-0.53,16.085-1.598
		c4.861-1.065,8.692-2.198,11.489-3.397l3.197,19.782c-1.333,0.668-3.166,1.367-5.495,2.098c-2.332,0.734-4.996,1.399-7.993,1.999
		c-2.997,0.599-6.229,1.099-9.691,1.498c-3.465,0.399-6.994,0.6-10.59,0.6c-9.191,0-17.184-1.367-23.978-4.097
		c-6.794-2.729-12.389-6.525-16.785-11.39c-4.396-4.86-7.662-10.59-9.791-17.184C407.287,192.254,406.223,185.029,406.223,177.168z
		 M476.359,166.378c0-3.328-0.468-6.494-1.398-9.491c-0.934-2.998-2.298-5.596-4.097-7.794c-1.798-2.197-3.996-3.928-6.594-5.195
		c-2.598-1.264-5.695-1.897-9.292-1.897c-3.731,0-6.994,0.699-9.792,2.098c-2.797,1.398-5.164,3.231-7.093,5.495
		c-1.933,2.267-3.431,4.864-4.496,7.793c-1.068,2.932-1.798,5.929-2.198,8.992H476.359z"/>
	<path fill="#333333" d="M562.48,230.919c-7.193-0.134-13.157-0.934-17.884-2.397c-4.73-1.465-8.492-3.563-11.29-6.295
		c-2.797-2.729-4.765-6.125-5.895-10.19c-1.134-4.062-1.699-8.692-1.699-13.888V77.858l24.178-3.996v119.691
		c0,2.932,0.231,5.396,0.699,7.394c0.465,1.998,1.299,3.696,2.498,5.096c1.199,1.398,2.829,2.466,4.896,3.197
		c2.064,0.733,4.696,1.298,7.893,1.698L562.48,230.919z"/>
	<path fill="#333333" d="M673.778,225.724c-4.795,1.468-10.824,2.798-18.083,3.996c-7.263,1.199-14.887,1.799-22.879,1.799
		c-8.262,0-15.655-1.268-22.181-3.797c-6.528-2.528-12.089-6.16-16.685-10.89c-4.596-4.728-8.127-10.456-10.59-17.185
		c-2.467-6.726-3.697-14.287-3.697-22.68c0-8.258,1.03-15.751,3.097-22.479c2.064-6.726,5.095-12.488,9.092-17.284
		c3.996-4.795,8.858-8.492,14.587-11.09c5.726-2.598,12.319-3.896,19.781-3.896c5.062,0,9.522,0.6,13.388,1.798
		c3.862,1.199,7.194,2.532,9.991,3.997V77.858l24.178-3.996V225.724z M604.441,176.368c0,10.659,2.529,19.018,7.594,25.078
		c5.061,6.063,12.055,9.091,20.98,9.091c3.862,0,7.159-0.165,9.892-0.499c2.729-0.331,4.961-0.699,6.693-1.099v-59.946
		c-2.132-1.464-4.964-2.828-8.492-4.096c-3.531-1.265-7.293-1.898-11.29-1.898c-8.792,0-15.22,2.997-19.282,8.991
		C606.471,157.985,604.441,166.112,604.441,176.368z"/>
	<path fill="#0488D1" d="M739.318,210.138c9.058,0,15.651-1.529,19.782-4.596c4.128-3.063,6.194-7.394,6.194-12.988
		c0-3.328-0.699-6.194-2.098-8.592c-1.399-2.398-3.397-4.562-5.995-6.494c-2.598-1.93-5.764-3.728-9.491-5.396
		c-3.731-1.664-7.993-3.297-12.788-4.896c-4.796-1.729-9.426-3.628-13.888-5.694c-4.465-2.064-8.393-4.627-11.79-7.693
		c-3.396-3.063-6.128-6.726-8.192-10.99c-2.066-4.262-3.097-9.391-3.097-15.386c0-12.52,4.327-22.345,12.988-29.473
		c8.657-7.125,20.447-10.69,35.368-10.69c8.657,0,16.351,0.968,23.079,2.897c6.725,1.933,12.02,4.031,15.885,6.294l-7.793,20.381
		c-4.53-2.529-9.491-4.461-14.886-5.795c-5.396-1.33-10.959-1.998-16.686-1.998c-6.793,0-12.089,1.399-15.885,4.196
		c-3.797,2.797-5.695,6.728-5.695,11.789c0,3.066,0.631,5.695,1.898,7.893c1.265,2.198,3.063,4.165,5.396,5.895
		c2.329,1.732,5.061,3.331,8.192,4.796c3.128,1.467,6.56,2.865,10.29,4.195c6.525,2.398,12.354,4.83,17.484,7.294
		c5.127,2.467,9.457,5.396,12.988,8.792c3.528,3.397,6.226,7.394,8.093,11.989c1.864,4.596,2.797,10.159,2.797,16.685
		c0,12.523-4.43,22.215-13.287,29.074c-8.861,6.862-21.815,10.29-38.865,10.29c-5.729,0-10.959-0.368-15.686-1.099
		c-4.73-0.733-8.927-1.633-12.589-2.697c-3.665-1.065-6.828-2.164-9.491-3.298c-2.666-1.13-4.796-2.163-6.395-3.097l7.394-20.581
		c3.597,1.998,8.458,3.996,14.587,5.994C723.265,209.139,730.657,210.138,739.318,210.138z"/>
	<path fill="#0488D1" d="M839.426,93.844c0,4.53-1.467,8.127-4.396,10.79c-2.932,2.667-6.395,3.997-10.391,3.997
		c-4.131,0-7.662-1.33-10.591-3.997c-2.932-2.663-4.396-6.26-4.396-10.79c0-4.662,1.464-8.324,4.396-10.99
		c2.929-2.663,6.46-3.996,10.591-3.996c3.996,0,7.459,1.333,10.391,3.996C837.959,85.52,839.426,89.182,839.426,93.844z
		 M836.828,228.921H812.65V124.416h24.178V228.921z"/>
	<path fill="#0488D1" d="M953.92,218.33c0,16.651-4.23,28.84-12.688,36.567c-8.462,7.724-21.415,11.589-38.865,11.589
		c-6.395,0-12.623-0.533-18.683-1.598c-6.063-1.068-11.559-2.467-16.485-4.196l4.396-20.582c4.127,1.73,8.823,3.129,14.087,4.196
		c5.261,1.064,10.955,1.599,17.084,1.599c9.723,0,16.65-1.998,20.781-5.994c4.128-3.997,6.194-9.926,6.194-17.784v-3.996
		c-2.397,1.199-5.563,2.397-9.491,3.597c-3.931,1.199-8.427,1.798-13.487,1.798c-6.663,0-12.758-1.064-18.284-3.196
		c-5.529-2.13-10.259-5.262-14.187-9.392c-3.931-4.128-6.994-9.292-9.191-15.486c-2.198-6.194-3.298-13.354-3.298-21.48
		c0-7.593,1.165-14.587,3.497-20.98c2.329-6.395,5.727-11.855,10.191-16.386c4.461-4.527,9.891-8.058,16.285-10.59
		c6.394-2.529,13.653-3.796,21.78-3.796c7.858,0,15.317,0.6,22.379,1.798c7.06,1.199,13.054,2.467,17.984,3.796V218.33z
		 M886.581,173.971c0,10.26,2.229,17.753,6.693,22.479c4.462,4.73,10.223,7.094,17.284,7.094c3.862,0,7.493-0.531,10.891-1.599
		c3.396-1.064,6.16-2.329,8.292-3.797v-54.15c-1.732-0.399-3.865-0.766-6.394-1.1c-2.532-0.331-5.729-0.499-9.592-0.499
		c-8.792,0-15.521,2.897-20.182,8.692C888.91,156.887,886.581,164.514,886.581,173.971z"/>
	<path fill="#0488D1" d="M984.69,228.921V77.858l24.179-3.996v51.753c2.663-0.93,5.76-1.729,9.291-2.398
		c3.528-0.665,7.025-0.999,10.49-0.999c8.393,0,15.353,1.168,20.882,3.497c5.525,2.332,9.956,5.595,13.287,9.791
		c3.329,4.196,5.695,9.226,7.094,15.086c1.399,5.863,2.099,12.389,2.099,19.582v58.747h-24.179v-54.95
		c0-5.595-0.368-10.356-1.099-14.287c-0.733-3.928-1.933-7.125-3.597-9.592c-1.667-2.463-3.896-4.262-6.694-5.395
		c-2.797-1.13-6.263-1.698-10.391-1.698c-3.196,0-6.463,0.334-9.791,0.999c-3.331,0.668-5.794,1.268-7.393,1.798v83.125H984.69z"/>
	<path fill="#0488D1" d="M1099.784,96.841l24.178-3.996v31.571h37.166v20.182h-37.166v42.562c0,8.392,1.33,14.387,3.996,17.983
		c2.663,3.597,7.193,5.395,13.588,5.395c4.396,0,8.292-0.465,11.689-1.398c3.396-0.931,6.095-1.798,8.093-2.598l3.996,19.183
		c-2.798,1.199-6.463,2.433-10.99,3.697c-4.53,1.264-9.859,1.897-15.985,1.897c-7.462,0-13.688-0.999-18.683-2.997
		c-4.996-1.998-8.961-4.896-11.89-8.692c-2.932-3.796-4.995-8.392-6.194-13.787s-1.798-11.555-1.798-18.483V96.841z"/>
</g>
</svg>
